<svg width="128" height="128" viewBox="0 0 128 128" fill="none" xmlns="http://www.w3.org/2000/svg">
<path d="M119.094 76.8154C118.371 80.1641 117.349 83.4497 116.031 86.6299C113.16 93.5626 108.951 99.8619 103.645 105.168C98.3383 110.474 92.0384 114.683 85.1055 117.555C78.6136 120.244 71.6854 121.711 64.6689 121.887L119.094 76.8154ZM63.2383 7.61914C70.7422 7.61916 78.1727 9.09714 85.1055 11.9688C92.0384 14.8404 98.3383 19.0493 103.645 24.3555C108.951 29.6617 113.16 35.9616 116.031 42.8945C117.02 45.2814 117.843 47.7273 118.498 50.2148L109.946 55.4971C108.382 47.6139 104.845 40.2282 99.6318 34.0469C93.4368 26.7012 85.1658 21.3993 75.9043 18.8379H75.8955L76.8379 20.6953C82.8674 32.9642 86.3045 46.344 86.9336 60H102.657L87.2383 69.5234H33.9043C33.9017 69.5267 33.899 69.5299 33.8965 69.5332H15.8574C16.8237 79.0919 20.6561 88.1355 26.8525 95.4775C31.3297 100.782 36.8903 105.019 43.124 107.928L54.0752 121.165C42.3163 119.255 31.364 113.7 22.832 105.168C12.1157 94.4516 6.0957 79.9169 6.0957 64.7617C6.09575 49.6066 12.1157 35.0718 22.832 24.3555C33.5484 13.6392 48.0831 7.61914 63.2383 7.61914ZM49.3145 19.21C40.3409 21.9591 32.3787 27.2963 26.4268 34.5527C20.4748 41.8093 16.798 50.662 15.8574 60H39.543C40.2192 45.4762 44.0189 31.4952 50.5713 18.8477L49.3145 19.21ZM62.4766 17.1523C54.4591 30.0723 49.8484 44.8143 49.0762 60H77.4004C76.6286 44.8142 72.0178 30.0721 64 17.1523C63.7462 17.1444 63.4922 17.141 63.2383 17.1426L62.4766 17.1523Z" fill="#315FAD"/>
<path fill-rule="evenodd" clip-rule="evenodd" d="M59.3044 120.26L28.2064 83.0761L37.9104 74.5701L61.1014 92.9449L117.492 56.0178L125.998 65.7218L59.3044 120.26Z" fill="#FF8000"/>
</svg>
